<svg width="33" height="36" viewBox="0 0 33 36" fill="none" xmlns="http://www.w3.org/2000/svg">
<path d="M32.3537 20.4896L29.5037 10.2356C28.6683 7.23161 26.8528 4.59304 24.3457 2.73931C21.8386 0.885585 18.7838 -0.0769144 15.6669 0.00480574C12.55 0.0865259 9.54983 1.20778 7.14331 3.19033C4.73679 5.17288 3.06202 7.90296 2.38521 10.9466L0.178713 20.8691C-0.0650139 21.9655 -0.0593789 23.1027 0.195202 24.1966C0.449783 25.2905 0.946809 26.3133 1.64959 27.1894C2.35236 28.0656 3.24294 28.7727 4.25558 29.2585C5.26822 29.7444 6.37705 29.9966 7.50021 29.9966H9.17121C9.51549 31.692 10.4353 33.2163 11.7748 34.3112C13.1143 35.406 14.7912 36.0041 16.5212 36.0041C18.2512 36.0041 19.9281 35.406 21.2676 34.3112C22.6071 33.2163 23.5269 31.692 23.8712 29.9966H25.1282C26.2844 29.9967 27.425 29.7294 28.4608 29.2158C29.4967 28.7021 30.3997 27.9559 31.0994 27.0354C31.7992 26.1149 32.2766 25.0452 32.4944 23.9097C32.7123 22.7742 32.6646 21.6037 32.3552 20.4896H32.3537ZM16.5212 32.9966C15.5938 32.9928 14.6903 32.7025 13.9342 32.1655C13.1781 31.6285 12.6063 30.871 12.2972 29.9966H20.7452C20.4361 30.871 19.8644 31.6285 19.1083 32.1655C18.3522 32.7025 17.4486 32.9928 16.5212 32.9966ZM28.7102 25.2191C28.2922 25.7736 27.7507 26.223 27.1286 26.5315C26.5066 26.8401 25.8211 26.9993 25.1267 26.9966H7.50021C6.82639 26.9965 6.16119 26.8451 5.55373 26.5535C4.94626 26.2619 4.41202 25.8376 3.99046 25.312C3.56889 24.7863 3.27075 24.1727 3.11806 23.5164C2.96536 22.8601 2.96199 22.1779 3.10821 21.5201L5.31321 11.5961C5.84474 9.20542 7.16017 7.06101 9.0504 5.50378C10.9406 3.94655 13.2972 3.06586 15.7454 3.00173C18.1936 2.93759 20.593 3.69368 22.5622 5.14981C24.5313 6.60594 25.9572 8.67852 26.6132 11.0381L29.4632 21.2921C29.6515 21.9602 29.6815 22.6629 29.5508 23.3446C29.4201 24.0263 29.1323 24.6681 28.7102 25.2191Z" fill="#666666"/>
</svg>
