<svg width="18" height="18" viewBox="0 0 18 18" fill="none" xmlns="http://www.w3.org/2000/svg">
<path d="M2.5 0C1.12109 0 0 1.12109 0 2.5V15C0 16.3789 1.12109 17.5 2.5 17.5H15C16.3789 17.5 17.5 16.3789 17.5 15V2.5C17.5 1.12109 16.3789 0 15 0H2.5ZM5 7.5C5.69141 7.5 6.25 8.05859 6.25 8.75V12.5C6.25 13.1914 5.69141 13.75 5 13.75C4.30859 13.75 3.75 13.1914 3.75 12.5V8.75C3.75 8.05859 4.30859 7.5 5 7.5ZM7.5 5C7.5 4.30859 8.05859 3.75 8.75 3.75C9.44141 3.75 10 4.30859 10 5V12.5C10 13.1914 9.44141 13.75 8.75 13.75C8.05859 13.75 7.5 13.1914 7.5 12.5V5ZM12.5 10C13.1914 10 13.75 10.5586 13.75 11.25V12.5C13.75 13.1914 13.1914 13.75 12.5 13.75C11.8086 13.75 11.25 13.1914 11.25 12.5V11.25C11.25 10.5586 11.8086 10 12.5 10Z" fill="#9333EA"/>
</svg>
